{
	"asset":{
		"version":"2.0",
		"generator":"Created using the official Cinema 4D glTF Exporter 1.000x284978"
	},
	"scenes":[{
		"nodes":[0,
		1]
	}],
	"nodes":[{
		"name":"管道.1",
		"mesh":0
	},
	{
		"name":"立方体",
		"mesh":1
	}],
	"meshes":[{
		"name":"管道.1",
		"primitives":[{
			"attributes":{
				"POSITION":1,
				"NORMAL":2,
				"TEXCOORD_0":3
			},
			"indices":0
		}]
	},
	{
		"name":"立方体",
		"primitives":[{
			"attributes":{
				"POSITION":5,
				"NORMAL":6,
				"TEXCOORD_0":7
			},
			"indices":4
		}]
	}],
	"accessors":[{
		"max":[5419],
		"bufferView":0,
		"type":"SCALAR",
		"componentType":5123,
		"count":27600,
		"byteOffset":0,
		"min":[0]
	},
	{
		"max":[12.300000190734864,
		0.03999999910593033,
		12.300000190734864],
		"bufferView":1,
		"type":"VEC3",
		"componentType":5126,
		"count":5420,
		"byteOffset":0,
		"min":[-12.300000190734864,
		-0.03999999910593033,
		-12.300000190734864]
	},
	{
		"max":[1.0,
		1.0,
		1.0],
		"bufferView":1,
		"type":"VEC3",
		"componentType":5126,
		"count":5420,
		"byteOffset":12,
		"min":[-1.0,
		-1.0,
		-1.0]
	},
	{
		"max":[1.0,
		1.0],
		"bufferView":1,
		"type":"VEC2",
		"componentType":5126,
		"count":5420,
		"byteOffset":24,
		"min":[0.0,
		0.0]
	},
	{
		"max":[4835],
		"bufferView":2,
		"type":"SCALAR",
		"componentType":5123,
		"count":25920,
		"byteOffset":0,
		"min":[0]
	},
	{
		"max":[12.5,
		0.35943445563316347,
		12.5],
		"bufferView":3,
		"type":"VEC3",
		"componentType":5126,
		"count":4836,
		"byteOffset":0,
		"min":[-12.5,
		-0.35943445563316347,
		-12.5]
	},
	{
		"max":[1.0,
		1.0,
		1.0],
		"bufferView":3,
		"type":"VEC3",
		"componentType":5126,
		"count":4836,
		"byteOffset":12,
		"min":[-1.0,
		-1.0,
		-1.0]
	},
	{
		"max":[1.0,
		1.0],
		"bufferView":3,
		"type":"VEC2",
		"componentType":5126,
		"count":4836,
		"byteOffset":24,
		"min":[0.0,
		0.0]
	}],
	"bufferViews":[{
		"buffer":0,
		"target":34963,
		"byteOffset":0,
		"byteLength":55200
	},
	{
		"buffer":0,
		"target":34962,
		"byteOffset":55200,
		"byteLength":173440,
		"byteStride":32
	},
	{
		"buffer":1,
		"target":34963,
		"byteOffset":0,
		"byteLength":51840
	},
	{
		"buffer":1,
		"target":34962,
		"byteOffset":51840,
		"byteLength":154752,
		"byteStride":32
	}],
	"buffers":[{
		"uri":"data:application/octet-stream;base64,",
		"byteLength":228640
	},
	{
		"uri":"data:application/octet-stream;base64,",
		"byteLength":206592
	}]
}