{
	"buffers":[{
		"uri":"data:application/octet-stream;base64,",
		"byteLength":301808
	}],
	"nodes":[{
		"name":"16 NW",
		"translation":[0.0,
		0.0,
		0.0],
		"rotation":[0.0,
		0.0,
		0.0,
		-1.0],
		"scale":[1.0,
		1.0,
		1.0],
		"mesh":0
	}],
	"asset":{
		"version":"2.0",
		"generator":"Created using the official Cinema 4D glTF Exporter 1.000x284978"
	},
	"scenes":[{
		"nodes":[0]
	}],
	"materials":[{
		"pbrMetallicRoughness":{
			"baseColorTexture":{
				"index":0
			},
			"baseColorFactor":[0.8,
			0.8,
			0.8,
			1.0],
			"metallicFactor":0.0,
			"roughnessFactor":0.5
		},
		"emissiveFactor":[0.0,
		0.0,
		0.0],
		"alphaMode":"OPAQUE",
		"doubleSided":false,
		"name":".11"
	}],
	"meshes":[{
		"name":"16 NW",
		"primitives":[{
			"attributes":{
				"POSITION":1,
				"NORMAL":2,
				"TEXCOORD_0":3
			},
			"indices":0,
			"material":0
		}]
	}],
	"accessors":[{
		"max":[7026],
		"bufferView":0,
		"type":"SCALAR",
		"componentType":5123,
		"count":38472,
		"byteOffset":0,
		"min":[0]
	},
	{
		"max":[1.1808571815490723,
		2.5218918323516847,
		2.272519588470459],
		"bufferView":1,
		"type":"VEC3",
		"componentType":5126,
		"count":7027,
		"byteOffset":0,
		"min":[-0.5234207510948181,
		-0.09601818025112152,
		-2.0437843799591066]
	},
	{
		"max":[0.9999688267707825,
		0.9999688267707825,
		0.9999375343322754],
		"bufferView":1,
		"type":"VEC3",
		"componentType":5126,
		"count":7027,
		"byteOffset":12,
		"min":[-0.9998437762260437,
		-0.9986875653266907,
		-0.9841875433921814]
	},
	{
		"max":[0.998088002204895,
		0.9938769340515137],
		"bufferView":1,
		"type":"VEC2",
		"componentType":5126,
		"count":7027,
		"byteOffset":24,
		"min":[0.0004199999966658652,
		0.001084999879822135]
	}],
	"bufferViews":[{
		"buffer":0,
		"byteOffset":0,
		"byteLength":76944,
		"target":34963
	},
	{
		"buffer":0,
		"byteOffset":76944,
		"byteLength":224864,
		"target":34962,
		"byteStride":32
	}],
	"images":[{
		"uri":"data:image/jpeg;base64,"
	}],
	"samplers":[{
		"magFilter":9729,
		"minFilter":9729,
		"wrapS":10497,
		"wrapT":10497
	}],
	"textures":[{
		"sampler":0,
		"source":0
	}]
}