<?xml version="1.0" encoding="UTF-8"?>
<svg id="_图层_2" data-name="图层 2" xmlns="http://www.w3.org/2000/svg" viewBox="0 0 1337.22 3186.06">
  <defs>
    <style>
      .cls-1 {
        fill-rule: evenodd;
      }

      .cls-1, .cls-2 {
        fill: #fff;
        stroke-width: 0px;
      }
    </style>
  </defs>
  <g id="_图层_2-2" data-name=" 图层 2">
    <g id="Layer_1" data-name="Layer 1">
      <g>
        <path class="cls-1" d="M1032.33,2073.4c0,315.64-.19,631.26.22,946.89.06,39.21-11.59,73.45-36.13,104.27-42.81,53.77-120.34,75.47-186.14,52.29-65.22-22.99-112.05-84.08-111.94-158.24.57-361,.25-722,.25-1083,0-5.26.47-10.58-.1-15.78-1.18-10.83-2.9-21.6-4.4-32.39-15.32-.76-30.66-2.18-45.96-1.75-3.17.08-7.86,6.66-8.81,10.9-1.56,6.93-.74,14.38-.74,21.61-.02,366.92-.21,733.83.25,1100.76.05,40.68-12.15,75.88-37.79,107.69-48.86,60.61-144.75,78.05-212.54,37.16-56.27-33.94-83.74-83.61-83.72-148.21.12-629.95.08-1259.9.07-1889.85,0-7.23.25-14.48-.16-21.69-.79-13.91-3.02-16.76-16.46-17.19-45.09-1.44-39.36.39-39.38,34.39-.09,213.71-.22,427.42.11,641.12.06,36.5-13.12,66.91-40.42,91.2-39.67,35.27-86.23,40.58-134.13,21.42-45.67-18.27-69.54-54.62-74.05-102.54-.43-4.57-.22-9.21-.22-13.81C.14,1516.67.41,1274.69,0,1032.71c-.14-87.48,26.7-165.86,82.17-234.3,67.27-82.98,155.39-131.01,263.87-142.16,23.47-2.41,47.19-3.38,70.8-3.42,177.25-.27,354.5-.98,531.74.17,109.09.7,204.2,38.17,280.16,114.9,69.71,70.41,108.27,154.8,108.27,254.01-.02,247.9-.25,495.81.21,743.71.09,48.77-23.54,83.73-65.37,105.73-74.5,39.2-176.59-4.56-183.27-101.8-.54-7.85-.19-15.77-.19-23.66,0-209.11,0-418.21-.01-627.32,0-32.3-.63-32.85-34.2-31.91-19.72.56-21.56,2.21-21.77,22.11-.24,23.67-.07,47.34-.07,71.02v893.62h-.01Z"/>
        <circle class="cls-2" cx="668.61" cy="285.28" r="285.28"/>
      </g>
    </g>
  </g>
</svg>